<svg width="100%" height="auto" viewBox="0 0 24 24" fill="none" xmlns="http://www.w3.org/2000/svg" class="">
  <g clip-path="url(#clip0_bell_icon)">
    <path d="M14.9414 20.5498C14.7194 20.9122 14.4325 21.2314 14.0938 21.4902L13.8887 21.6357C13.3273 22.0033 12.671 22.1985 12 22.1992C11.4129 22.1985 10.8369 22.0494 10.3262 21.7656L10.1113 21.6357C9.6828 21.3551 9.32411 20.9833 9.05859 20.5498H14.9414Z" stroke="#FCF8F1" stroke-width="0.6"></path>
    <path d="M13.6211 1.7998L13.9541 3.7998L13.9873 3.99805L14.1836 4.04297C15.7087 4.38987 16.7658 5.23914 17.4482 6.39453C18.1356 7.55828 18.4502 9.04638 18.4502 10.6631V13.5996L18.5098 13.6797L20.7002 16.5996V18.4502H3.2998V16.5996L5.49023 13.6797L5.5498 13.5996V10.6631C5.5498 9.04027 5.86213 7.55263 6.54785 6.39062C7.22859 5.23715 8.28512 4.39 9.81641 4.04297L10.0127 3.99805L10.0459 3.7998L10.3789 1.7998H13.6211Z" stroke="#FCF8F1" stroke-width="0.6" class=""></path>
  </g>
  <defs>
    <clipPath id="clip0_bell_icon">
      <rect width="24" height="24" fill="white"></rect>
    </clipPath>
  </defs>
</svg>