<svg xmlns="http://www.w3.org/2000/svg" width="100%" height="100%" viewBox="0 0 50 50" fill="none" class="social-img"><path fill-rule="evenodd" clip-rule="evenodd" d="M25 13.2812C21.8174 13.2812 21.4183 13.2947 20.1684 13.3518C18.921 13.4087 18.0692 13.6068 17.3237 13.8965C16.5531 14.196 15.8996 14.5967 15.2481 15.2482C14.5966 15.8997 14.1959 16.5532 13.8964 17.3238C13.6067 18.0692 13.4087 18.921 13.3517 20.1684C13.2947 21.4183 13.2812 21.8174 13.2812 25C13.2812 28.1826 13.2947 28.5817 13.3517 29.8316C13.4087 31.079 13.6067 31.9308 13.8964 32.6762C14.1959 33.4468 14.5966 34.1003 15.2481 34.7519C15.8996 35.4034 16.5531 35.8041 17.3237 36.1036C18.0692 36.3932 18.921 36.5913 20.1684 36.6482C21.4183 36.7053 21.8174 36.7188 25 36.7188C28.1826 36.7188 28.5817 36.7053 29.8316 36.6482C31.079 36.5913 31.9308 36.3932 32.6762 36.1036C33.4468 35.8041 34.1003 35.4034 34.7519 34.7519C35.4034 34.1003 35.8041 33.4468 36.1036 32.6762C36.3932 31.9308 36.5913 31.079 36.6482 29.8316C36.7053 28.5817 36.7188 28.1826 36.7188 25C36.7188 21.8174 36.7053 21.4183 36.6482 20.1684C36.5913 18.921 36.3932 18.0692 36.1036 17.3238C35.8041 16.5532 35.4034 15.8997 34.7519 15.2482C34.1003 14.5967 33.4468 14.196 32.6762 13.8965C31.9308 13.6068 31.079 13.4087 29.8316 13.3518C28.5817 13.2947 28.1826 13.2812 25 13.2812ZM25 15.3927C28.1291 15.3927 28.4997 15.4047 29.7354 15.4611C30.878 15.5132 31.4984 15.7041 31.9114 15.8646C32.4584 16.0771 32.8488 16.3311 33.2588 16.7412C33.6689 17.1512 33.9229 17.5417 34.1354 18.0886C34.2959 18.5016 34.4868 19.122 34.5389 20.2646C34.5953 21.5003 34.6073 21.8709 34.6073 25C34.6073 28.1291 34.5953 28.4997 34.5389 29.7354C34.4868 30.878 34.2959 31.4984 34.1354 31.9114C33.9229 32.4584 33.6689 32.8488 33.2588 33.2588C32.8488 33.6689 32.4584 33.9229 31.9114 34.1354C31.4984 34.2959 30.878 34.4868 29.7354 34.5389C28.4999 34.5953 28.1293 34.6073 25 34.6073C21.8707 34.6073 21.5002 34.5953 20.2646 34.5389C19.122 34.4868 18.5016 34.2959 18.0886 34.1354C17.5416 33.9229 17.1512 33.6689 16.7411 33.2588C16.3311 32.8488 16.0771 32.4584 15.8646 31.9114C15.7041 31.4984 15.5132 30.878 15.461 29.7354C15.4046 28.4997 15.3927 28.1291 15.3927 25C15.3927 21.8709 15.4046 21.5003 15.461 20.2646C15.5132 19.122 15.7041 18.5016 15.8646 18.0886C16.0771 17.5417 16.3311 17.1512 16.7411 16.7412C17.1512 16.3311 17.5416 16.0771 18.0886 15.8646C18.5016 15.7041 19.122 15.5132 20.2646 15.4611C21.5003 15.4047 21.8709 15.3927 25 15.3927ZM25 18.9823C21.6765 18.9823 18.9823 21.6765 18.9823 25C18.9823 28.3235 21.6765 31.0177 25 31.0177C28.3235 31.0177 31.0177 28.3235 31.0177 25C31.0177 21.6765 28.3235 18.9823 25 18.9823ZM25 28.9062C22.8427 28.9062 21.0938 27.1573 21.0938 25C21.0938 22.8427 22.8427 21.0938 25 21.0938C27.1573 21.0938 28.9062 22.8427 28.9062 25C28.9062 27.1573 27.1573 28.9062 25 28.9062ZM32.6618 18.7445C32.6618 19.5212 32.0321 20.1507 31.2555 20.1507C30.4789 20.1507 29.8493 19.5212 29.8493 18.7445C29.8493 17.9679 30.4789 17.3383 31.2555 17.3383C32.0321 17.3383 32.6618 17.9679 32.6618 18.7445Z" fill="currentColor" class="" data-label="path"></path></svg>