<svg xmlns="http://www.w3.org/2000/svg" width="100%" height="100%" viewBox="0 0 50 50" fill="none" class="social-img"><path fill-rule="evenodd" clip-rule="evenodd" d="M19.2485 35.4337V20.791H14.3806V35.4337H19.2485ZM36.7988 35.4337V27.0367C36.7988 22.539 34.3974 20.4467 31.1951 20.4467C28.613 20.4467 27.4563 21.8668 26.8087 22.8642V20.791H21.942C22.0065 22.1648 21.942 35.4337 21.942 35.4337H26.8087V27.2562C26.8087 26.8185 26.8402 26.3809 26.9691 26.0681C27.3203 25.194 28.1218 24.2884 29.4663 24.2884C31.2266 24.2884 31.9319 25.6317 31.9319 27.5992V35.4337H36.7988ZM16.8474 13.7305C15.1819 13.7305 14.0938 14.8254 14.0938 16.2606C14.0938 17.6656 15.1488 18.7907 16.783 18.7907H16.8144C18.5118 18.7907 19.5683 17.6656 19.5683 16.2606C19.5368 14.8254 18.5119 13.7305 16.8474 13.7305Z" fill="currentColor" class=""></path></svg>