<svg width="100%" height="auto" viewBox="0 0 24 24" fill="none" xmlns="http://www.w3.org/2000/svg" class="">
  <g clip-path="url(#clip0_profile_icon)" class="" data-label="g">
    <path d="M12 13.7998C13.5802 13.7998 15.9727 14.2912 17.9629 15.2725C19.97 16.2621 21.4502 17.6865 21.4502 19.5V22.2002H2.5498V19.5C2.54981 17.6865 4.02999 16.2621 6.03711 15.2725C8.02729 14.2912 10.4198 13.7998 12 13.7998ZM10.1055 2.17676C10.897 1.8489 11.7583 1.73279 12.6045 1.83691L12.9658 1.89551C13.8059 2.06264 14.5858 2.44446 15.2314 3.00098L15.5 3.25C16.1057 3.85567 16.5428 4.60629 16.7705 5.42773L16.8545 5.78418C17.0216 6.62422 16.9682 7.49133 16.7012 8.30078L16.5732 8.64453C16.2454 9.43587 15.7187 10.1267 15.0469 10.6514L14.75 10.8662C13.936 11.41 12.9789 11.7002 12 11.7002C10.7693 11.7002 9.58573 11.242 8.67773 10.4199L8.5 10.25C7.5717 9.3217 7.0498 8.06282 7.0498 6.75C7.04981 5.89329 7.27237 5.05346 7.69238 4.31152L7.88379 4C8.35966 3.28781 9.01122 2.71266 9.77246 2.3291L10.1055 2.17676Z" stroke="#FCF8F1" stroke-width="0.6" class=""></path>
  </g>
  <defs>
    <clipPath id="clip0_profile_icon">
      <rect width="24" height="24" fill="white"></rect>
    </clipPath>
  </defs>
</svg>