<svg xmlns="http://www.w3.org/2000/svg" width="100%" height="100%" viewBox="0 0 50 50" fill="none" class="social-img"><path fill-rule="evenodd" clip-rule="evenodd" d="M36.2291 19.3587C35.9596 18.3503 35.1655 17.5563 34.1571 17.2867C32.3291 16.7969 25 16.7969 25 16.7969C25 16.7969 17.6709 16.7969 15.8429 17.2867C14.8347 17.5563 14.0404 18.3503 13.7709 19.3587C13.2812 21.1865 13.2812 25.0001 13.2812 25.0001C13.2812 25.0001 13.2812 28.8136 13.7709 30.6413C14.0404 31.6497 14.8347 32.444 15.8429 32.7135C17.6709 33.2031 25 33.2031 25 33.2031C25 33.2031 32.3291 33.2031 34.1571 32.7135C35.1655 32.444 35.9596 31.6497 36.2291 30.6413C36.7187 28.8136 36.7188 25.0001 36.7188 25.0001C36.7188 25.0001 36.7187 21.1865 36.2291 19.3587ZM22.6562 28.5158V21.4844L28.7453 25.0001L22.6562 28.5158Z" fill="currentColor" class=""></path></svg>